<svg id="lacuna" xmlns="http://www.w3.org/2000/svg" viewBox="0 0 394.63 129.65"><defs><style>.cls-1{fill:#1e1f1d;}.cls-2{fill:#1e1e1c;}</style></defs><title>lacunalogo_new</title><path class="cls-1" d="M293.38,90.47a16.81,16.81,0,0,0-3.41-5.4,15.77,15.77,0,0,0-5-3.58,14.8,14.8,0,0,0-6.13-1.29H265.54v1h4.75v32.1h-4.75v1h13.27a14.78,14.78,0,0,0,6.13-1.29,15.75,15.75,0,0,0,5-3.57,16.81,16.81,0,0,0,3.41-5.4A19.05,19.05,0,0,0,293.38,90.47Zm-4.11,18.24a14.46,14.46,0,0,1-4.72,3.38,14,14,0,0,1-5.74,1.19h-3.65V81.18h3.65a13.72,13.72,0,0,1,5.74,1.22,15.14,15.14,0,0,1,4.72,3.36v23Z" transform="translate(-47.37 -34.84)"/><path class="cls-1" d="M401.64,98.69v1h3.89v12.75a13.28,13.28,0,0,1-5.84,1.36,12.74,12.74,0,0,1-5.06-1,14.09,14.09,0,0,1-4.18-2.75V89.3a15,15,0,0,1,4.18-2.73,12.49,12.49,0,0,1,5.06-1,12.79,12.79,0,0,1,5.38,1.14,13.59,13.59,0,0,1,3.35,2.16h-2.94v1h3.95l0.83-.58-0.4-.39a15,15,0,0,0-4.34-3,14.21,14.21,0,0,0-11.5,0A14.67,14.67,0,0,0,389.36,89a15.42,15.42,0,0,0,0,21.31,14.65,14.65,0,0,0,4.65,3.23,14.14,14.14,0,0,0,11.53-.07v0.78h4.86V98.69h-8.76Z" transform="translate(-47.37 -34.84)"/><polygon class="cls-1" points="324.29 78.45 324.29 50.22 314.66 50.22 314.66 51.2 319.43 51.2 319.43 78.45 314.66 78.45 314.66 79.43 327.26 79.42 327.26 78.45 324.29 78.45"/><polygon class="cls-1" points="277.4 50.23 277.4 50.23 256.1 50.23 256.1 51.21 260.87 51.21 260.87 78.44 256.1 78.44 256.1 79.42 278.38 79.42 278.38 74.65 277.4 74.65 277.4 78.45 265.73 78.45 265.73 64.34 275.95 64.34 275.95 63.37 265.73 63.37 265.73 51.2 277.4 51.2 277.4 55 278.38 55 278.38 50.23 278.38 50.23 277.4 50.23"/><path class="cls-1" d="M352.85,103.07a8.08,8.08,0,0,0-2.14-2.7l-13.47-9a7.15,7.15,0,0,1,1-2.29,7.67,7.67,0,0,1,4-3.06,8.12,8.12,0,0,1,2.68-.44,7.8,7.8,0,0,1,6.38,3.16h-3v1H353l-0.55-1a8.83,8.83,0,0,0-2.9-2.86,8.74,8.74,0,0,0-4.65-1.26,8.9,8.9,0,0,0-3.41.66,9,9,0,0,0-2.8,1.77,8.29,8.29,0,0,0-1.87,2.6,7.55,7.55,0,0,0-.68,3.19,7.67,7.67,0,0,0,1,3.79,8.09,8.09,0,0,0,2.68,2.87l12.7,8.66a6.87,6.87,0,0,1-1,2.26,7.47,7.47,0,0,1-1.7,1.8,8.09,8.09,0,0,1-2.26,1.19,8,8,0,0,1-2.63.44,8.25,8.25,0,0,1-2.85-.49,7.54,7.54,0,0,1-2.36-1.36,7.93,7.93,0,0,1-1.7-2,6.23,6.23,0,0,1-.73-1.95H341v-1h-4.81a6.05,6.05,0,0,0,0,1h0a7.69,7.69,0,0,0,1.07,2.67,8.48,8.48,0,0,0,1.92,2.12,9.13,9.13,0,0,0,11.82-.51,8.28,8.28,0,0,0,1.87-2.6,7.54,7.54,0,0,0,.68-3.19A7.66,7.66,0,0,0,352.85,103.07Z" transform="translate(-47.37 -34.84)"/><polygon class="cls-1" points="389.87 50.28 389.87 51.26 393.66 51.26 393.66 71.83 376.15 50.28 375.17 50.28 375.17 78.39 375.17 79.37 379.94 79.37 379.94 78.39 376.15 78.39 376.15 58.01 393.46 79.37 394.63 79.37 394.63 50.28 394.63 50.28 389.87 50.28"/><path class="cls-1" d="M136.8,112.8a13,13,0,0,1-5.38,1.12,12.74,12.74,0,0,1-5.06-1,14.08,14.08,0,0,1-4.18-2.75V89.45a15,15,0,0,1,4.18-2.73,12.49,12.49,0,0,1,5.06-1,12.79,12.79,0,0,1,5.38,1.14A13.54,13.54,0,0,1,141.15,90h1V85.22h-1V88.6A15,15,0,0,0,137.23,86a14.21,14.21,0,0,0-11.5,0,14.67,14.67,0,0,0-4.65,3.24,15.42,15.42,0,0,0,0,21.31,14.65,14.65,0,0,0,4.65,3.23,14.21,14.21,0,0,0,11.5,0,15,15,0,0,0,4.74-3.43l-0.83-.54A13.22,13.22,0,0,1,136.8,112.8Z" transform="translate(-47.37 -34.84)"/><path class="cls-1" d="M166.88,85.22v1h3.79v19.94a7.55,7.55,0,0,1-.61,3,7.91,7.91,0,0,1-4.16,4.16,7.54,7.54,0,0,1-3,.61,8,8,0,0,1-2.07-.27,7.31,7.31,0,0,1-1.83-.75V85.22h-4.86v21.31a8,8,0,0,0,.78,3.28,9,9,0,0,0,1.9,2.65,8.78,8.78,0,0,0,2.75,1.78,8.82,8.82,0,0,0,6.74,0,8.67,8.67,0,0,0,4.67-4.67,8.63,8.63,0,0,0,.68-3.41V85.22h-4.77Z" transform="translate(-47.37 -34.84)"/><polygon class="cls-1" points="153.9 50.38 153.9 51.36 157.69 51.36 157.69 71.93 140.18 50.38 139.21 50.38 139.21 79.47 143.97 79.47 143.97 78.5 140.18 78.5 140.18 58.12 157.5 79.47 158.67 79.47 158.67 50.38 153.9 50.38"/><path class="cls-1" d="M105.36,113.44L95.43,85.22H88.12v1h5.6L83.8,114.41h1l2.87-8.17h10l2.53,7.21H97.33v1h11v-1h-3Zm-17.27-8.28L92.71,92l4.62,13.13H88.08Z" transform="translate(-47.37 -34.84)"/><path class="cls-1" d="M239,113.68l-9.93-28.22h-7.31v1h5.6l-9.92,28.21h1l2.87-8.17h10l2.53,7.21H231v1h11v-1h-3Zm-17.27-8.28,4.62-13.13L231,105.4h-9.24Z" transform="translate(-47.37 -34.84)"/><path class="cls-1" d="M76.32,108.59v1.47a2.89,2.89,0,0,1-.55,1.75,1.79,1.79,0,0,1-1.49.77l-8.17,0a4,4,0,0,0-2.58,1,3,3,0,0,0-1.24,2.34h0A3,3,0,0,0,61,113.57a4.73,4.73,0,0,0-1.16-.69V81.16h4v-1H48.43v0.95h4.5v31.42H50.23a1.8,1.8,0,0,1-1.5-.77,2.9,2.9,0,0,1-.55-1.75v-1.47H47.37v1.77a4.44,4.44,0,0,0,1.1,3,3.12,3.12,0,0,0,2.31,1.26h7.65a3.54,3.54,0,0,1,2.17.83q1.08,0.83,1.16,3.64h1q0.08-2.81,1.16-3.64a3.52,3.52,0,0,1,2.16-.83h7.65A3.18,3.18,0,0,0,76,113.37a4.39,4.39,0,0,0,1.1-3v-1.77H76.32Zm-17.91,4H57.67V81.16H59v31.48A3.66,3.66,0,0,0,58.4,112.58Z" transform="translate(-47.37 -34.84)"/><path class="cls-2" d="M373.56,71.81c0-.29-0.08-0.72-0.18-1.27A23.26,23.26,0,0,0,372,65.81a22.07,22.07,0,0,0-4.2-6.72A21.2,21.2,0,0,0,366,57.38,9.23,9.23,0,0,0,363.8,56a22.75,22.75,0,0,0-5.28-1.9,23.63,23.63,0,0,0-2.93-.47c-0.5,0-1-.08-1.51-0.1s-1,0-1.5,0H264.64c-0.46,0-.91,0-1.38-0.06-0.92-.05-1.83-0.14-2.7-0.26a22.47,22.47,0,0,1-4.85-1.2,11.21,11.21,0,0,1-2-1c-0.61-.38-1.25-0.68-1.84-1a11.68,11.68,0,0,1-3-2.61,17.12,17.12,0,0,1-3-6.19,38.4,38.4,0,0,1-.93-4.63l-0.19-1.39,0-.29,0,0.29-0.19,1.39a38.4,38.4,0,0,1-.93,4.63,17.12,17.12,0,0,1-3,6.19,11.68,11.68,0,0,1-3,2.61c-0.59.37-1.22,0.66-1.84,1a11.21,11.21,0,0,1-2,1,22.47,22.47,0,0,1-4.85,1.2c-0.87.12-1.78,0.21-2.7,0.26-0.47,0-.92,0-1.38.06H136.79c-0.46,0-1,0-1.5,0s-1,.06-1.51.1a23.63,23.63,0,0,0-2.93.47,22.75,22.75,0,0,0-5.28,1.9,9.23,9.23,0,0,0-2.23,1.37,21.2,21.2,0,0,0-1.77,1.71,22.06,22.06,0,0,0-4.2,6.72A23.25,23.25,0,0,0,116,70.54c-0.1.55-.15,1-0.18,1.27l0,0.44s0.23-.55.74-1.53a28.14,28.14,0,0,1,2.55-3.95A22.17,22.17,0,0,1,124.12,62c0.54-.36,1.13-0.68,1.72-1s1.17-.69,1.78-1.05a16.24,16.24,0,0,1,4.2-1.54,19.24,19.24,0,0,1,2.39-.38c0.41,0,.83-0.07,1.26-0.08s0.83,0,1.33,0h86.46a33,33,0,0,0,12-1.81,28.71,28.71,0,0,0,2.66-1.18,9.8,9.8,0,0,0,2.26-1.7,15.4,15.4,0,0,0,3.09-4.14A16,16,0,0,0,244.68,45v0a16,16,0,0,0,1.45,4.13,15.4,15.4,0,0,0,3.09,4.14,9.8,9.8,0,0,0,2.26,1.7,28.71,28.71,0,0,0,2.66,1.18,33,33,0,0,0,12,1.81h86.46c0.49,0,.89,0,1.33,0s0.84,0,1.26.08a19.25,19.25,0,0,1,2.39.38,16.24,16.24,0,0,1,4.2,1.54c0.61,0.36,1.19.72,1.79,1s1.17,0.66,1.71,1a22.17,22.17,0,0,1,5.06,4.77,28.14,28.14,0,0,1,2.55,3.95c0.51,1,.74,1.53.74,1.53Z" transform="translate(-47.37 -34.84)"/><path class="cls-2" d="M373.56,127.51c0,0.29-.08.72-0.18,1.27a23.26,23.26,0,0,1-1.38,4.73,22.07,22.07,0,0,1-4.2,6.72,21.2,21.2,0,0,1-1.77,1.71,9.23,9.23,0,0,1-2.23,1.37,22.75,22.75,0,0,1-5.28,1.9,23.63,23.63,0,0,1-2.93.47c-0.5,0-1,.08-1.51.1s-1,0-1.5,0H264.64c-0.46,0-.91,0-1.38.06-0.92.05-1.83,0.14-2.7,0.26a22.47,22.47,0,0,0-4.85,1.2,11.21,11.21,0,0,0-2,1c-0.61.38-1.25,0.68-1.84,1a11.68,11.68,0,0,0-3,2.61,17.12,17.12,0,0,0-3,6.19,38.4,38.4,0,0,0-.93,4.63l-0.19,1.39,0,0.29,0-.29-0.19-1.39a38.4,38.4,0,0,0-.93-4.63,17.12,17.12,0,0,0-3-6.19,11.68,11.68,0,0,0-3-2.61c-0.59-.37-1.22-0.66-1.84-1a11.21,11.21,0,0,0-2-1,22.47,22.47,0,0,0-4.85-1.2c-0.87-.12-1.78-0.21-2.7-0.26-0.47,0-.92,0-1.38-0.06H136.79c-0.46,0-1,0-1.5,0s-1-.06-1.51-0.1a23.63,23.63,0,0,1-2.93-.47,22.75,22.75,0,0,1-5.28-1.9,9.23,9.23,0,0,1-2.23-1.37,21.2,21.2,0,0,1-1.77-1.71,22.06,22.06,0,0,1-4.2-6.72,23.25,23.25,0,0,1-1.38-4.73c-0.1-.55-0.15-1-0.18-1.27l0-.44s0.23,0.55.74,1.53a28.14,28.14,0,0,0,2.55,3.95,22.17,22.17,0,0,0,5.06,4.77c0.54,0.36,1.13.68,1.72,1s1.17,0.69,1.78,1.05a16.24,16.24,0,0,0,4.2,1.54,19.24,19.24,0,0,0,2.39.38c0.41,0,.83.07,1.26,0.08s0.83,0,1.33,0h86.46a33,33,0,0,1,12,1.81,28.71,28.71,0,0,1,2.66,1.18,9.8,9.8,0,0,1,2.26,1.7,15.4,15.4,0,0,1,3.09,4.14,16,16,0,0,1,1.45,4.13v0a16,16,0,0,1,1.45-4.13,15.4,15.4,0,0,1,3.09-4.14,9.8,9.8,0,0,1,2.26-1.7,28.71,28.71,0,0,1,2.66-1.18,33,33,0,0,1,12-1.81h86.46c0.49,0,.89,0,1.33,0s0.84,0,1.26-.08a19.25,19.25,0,0,0,2.39-.38,16.24,16.24,0,0,0,4.2-1.54c0.61-.36,1.19-0.72,1.79-1s1.17-.66,1.71-1a22.17,22.17,0,0,0,5.06-4.77,28.14,28.14,0,0,0,2.55-3.95c0.51-1,.74-1.53.74-1.53Z" transform="translate(-47.37 -34.84)"/></svg>