<svg id="Layer_1" data-name="Layer 1" xmlns="http://www.w3.org/2000/svg" viewBox="0 0 500 185.02"><defs><style>.cls-1{fill:#1d1d1b;}</style></defs><title>lacuna_logo</title><polygon class="cls-1" points="496.48 181.5 3.89 181.5 3.89 130.03 0 130.03 0 185.02 500 185.02 500 130.03 496.48 130.03 496.48 181.5"/><polygon class="cls-1" points="0 0 0 54.99 3.89 54.99 3.89 3.52 496.48 3.52 496.48 54.99 500 54.99 500 0 0 0"/><path class="cls-1" d="M57.1,121q8-.23,10.34-3.29a10,10,0,0,0,2.36-6.16V89.84q0-3.43,3.57-6.56a12.59,12.59,0,0,1,8.57-3.13h5v2.32H82.78a8.23,8.23,0,0,0-5,1.55,5.1,5.1,0,0,0-2.18,4.24v23.17a11.57,11.57,0,0,1-2.8,7.34,8.41,8.41,0,0,1-6.61,3.55v0.09a8.5,8.5,0,0,1,6.63,3.52,11.45,11.45,0,0,1,2.83,7.32l0,23.17a5.08,5.08,0,0,0,2.18,4.24,8.2,8.2,0,0,0,5,1.56h4.17v2.32h-5a12.45,12.45,0,0,1-8.55-3.13q-3.55-3.12-3.59-6.56V133.18a10,10,0,0,0-2.36-6.12Q65.07,124,57.1,123.77V121Z" transform="translate(-29.85 -29.85)"/><path class="cls-1" d="M502.6,123.77q-8,.23-10.34,3.29a10,10,0,0,0-2.36,6.12v21.69q0,3.43-3.59,6.56a12.45,12.45,0,0,1-8.55,3.13h-5v-2.32h4.17a8.2,8.2,0,0,0,5-1.56,5.08,5.08,0,0,0,2.18-4.24l0-23.17a11.45,11.45,0,0,1,2.83-7.32,8.5,8.5,0,0,1,6.63-3.52v-0.09a8.41,8.41,0,0,1-6.61-3.55,11.57,11.57,0,0,1-2.8-7.34V88.27A5.1,5.1,0,0,0,481.88,84a8.23,8.23,0,0,0-5-1.55h-4.17V80.16h5a12.59,12.59,0,0,1,8.57,3.13q3.57,3.14,3.57,6.56v21.69a10,10,0,0,0,2.36,6.16q2.36,3.06,10.34,3.29v2.78Z" transform="translate(-29.85 -29.85)"/><path class="cls-1" d="M184.51,148.26a28.31,28.31,0,0,0-5.74-9.09,26.56,26.56,0,0,0-8.48-6A24.92,24.92,0,0,0,160,131H137.63v1.64h8v54.06h-8v1.64H160a24.88,24.88,0,0,0,10.32-2.17,26.52,26.52,0,0,0,8.48-6,28.31,28.31,0,0,0,5.74-9.09A32.08,32.08,0,0,0,184.51,148.26ZM177.59,179a24.35,24.35,0,0,1-7.95,5.69,23.49,23.49,0,0,1-9.67,2h-6.14V132.61H160a23.1,23.1,0,0,1,9.67,2,25.5,25.5,0,0,1,7.95,5.65V179Z" transform="translate(-29.85 -29.85)"/><path class="cls-1" d="M366.82,162.1v1.64h6.55V185.2a22.37,22.37,0,0,1-9.83,2.29,21.46,21.46,0,0,1-8.52-1.68,23.72,23.72,0,0,1-7-4.63v-34.9a25.3,25.3,0,0,1,7-4.59,21,21,0,0,1,8.52-1.72,21.54,21.54,0,0,1,9.05,1.93,22.89,22.89,0,0,1,5.63,3.64h-5v1.64h6.65l1.39-1-0.68-.66a25.23,25.23,0,0,0-7.31-5.11,23.94,23.94,0,0,0-19.37-.08,24.71,24.71,0,0,0-7.82,5.45,26,26,0,0,0,0,35.88,24.67,24.67,0,0,0,7.82,5.45,23.81,23.81,0,0,0,19.42-.12v1.31h8.19V162.1H366.82Z" transform="translate(-29.85 -29.85)"/><polygon class="cls-1" points="286.49 156.84 286.49 109.3 270.27 109.3 270.27 110.94 278.3 110.94 278.3 156.84 270.27 156.84 270.27 158.48 291.49 158.48 291.49 156.84 286.49 156.84"/><polygon class="cls-1" points="207.52 109.31 207.52 109.31 171.65 109.31 171.65 110.96 179.67 110.96 179.67 156.82 171.65 156.82 171.65 158.47 209.16 158.47 209.16 150.44 207.52 150.44 207.52 156.83 187.86 156.83 187.86 133.07 205.07 133.07 205.07 131.43 187.86 131.43 187.86 110.95 207.52 110.95 207.52 117.34 209.16 117.34 209.16 109.31 209.16 109.31 207.52 109.31"/><path class="cls-1" d="M284.66,169.47a13.61,13.61,0,0,0-3.6-4.55l-22.69-15.16a12,12,0,0,1,1.68-3.85,12.92,12.92,0,0,1,6.68-5.16,13.68,13.68,0,0,1,4.51-.74A13.13,13.13,0,0,1,282,145.34H276.9V147h8l-0.92-1.64a14.87,14.87,0,0,0-4.89-4.82,14.71,14.71,0,0,0-7.82-2.13,15,15,0,0,0-5.74,1.11,15.21,15.21,0,0,0-4.71,3,14,14,0,0,0-3.15,4.38,12.72,12.72,0,0,0-1.15,5.37,12.92,12.92,0,0,0,1.64,6.39,13.62,13.62,0,0,0,4.51,4.83L284,178a11.58,11.58,0,0,1-1.68,3.81,12.58,12.58,0,0,1-2.87,3,13.62,13.62,0,0,1-3.81,2,13.39,13.39,0,0,1-4.42.74,13.9,13.9,0,0,1-4.79-.82,12.7,12.7,0,0,1-4-2.3,13.35,13.35,0,0,1-2.87-3.44,10.5,10.5,0,0,1-1.24-3.28h6.4v-1.64h-8.11a10.2,10.2,0,0,0,.08,1.64h0a13,13,0,0,0,1.8,4.5,14.28,14.28,0,0,0,3.24,3.56,15.38,15.38,0,0,0,19.91-.86,14,14,0,0,0,3.15-4.38,12.7,12.7,0,0,0,1.15-5.36A12.91,12.91,0,0,0,284.66,169.47Z" transform="translate(-29.85 -29.85)"/><polygon class="cls-1" points="396.92 109.4 396.92 111.04 403.31 111.04 403.31 145.69 373.81 109.4 372.18 109.4 372.18 156.74 372.18 158.39 380.2 158.38 380.2 156.74 373.81 156.74 373.81 122.42 402.98 158.39 404.95 158.39 404.95 109.4 404.95 109.4 396.92 109.4"/><path class="cls-1" d="M266.57,110.47a21.93,21.93,0,0,1-9.05,1.88,21.46,21.46,0,0,1-8.52-1.68,23.72,23.72,0,0,1-7-4.63V71.15a25.3,25.3,0,0,1,7-4.59,21,21,0,0,1,8.52-1.72,21.54,21.54,0,0,1,9.05,1.93A22.81,22.81,0,0,1,273.91,72h1.65V64h-1.64v5.69a25.19,25.19,0,0,0-6.6-4.42,23.94,23.94,0,0,0-19.37-.08,24.71,24.71,0,0,0-7.82,5.45,26,26,0,0,0,0,35.88,24.67,24.67,0,0,0,7.82,5.45,23.93,23.93,0,0,0,19.37-.08,25.29,25.29,0,0,0,8-5.78l-1.39-.9A22.27,22.27,0,0,1,266.57,110.47Z" transform="translate(-29.85 -29.85)"/><path class="cls-1" d="M317.24,64v1.64h6.39V99.25a12.71,12.71,0,0,1-1,5.08,13.32,13.32,0,0,1-7,7,12.7,12.7,0,0,1-5.08,1,13.38,13.38,0,0,1-3.48-.45,12.3,12.3,0,0,1-3.07-1.27V64h-8.19V99.9a13.56,13.56,0,0,0,1.31,5.53,15.09,15.09,0,0,0,3.2,4.46,14.79,14.79,0,0,0,4.63,3,14.85,14.85,0,0,0,11.35,0,14.61,14.61,0,0,0,7.86-7.86,14.53,14.53,0,0,0,1.15-5.74V64h-8Z" transform="translate(-29.85 -29.85)"/><polygon class="cls-1" points="345.31 34.17 345.31 35.81 351.69 35.81 351.69 70.46 322.2 34.17 320.56 34.17 320.56 83.16 328.59 83.16 328.59 81.52 322.2 81.52 322.2 47.2 351.37 83.16 353.33 83.16 353.33 34.17 345.31 34.17"/><path class="cls-1" d="M213.63,111.55L196.91,64H184.6v1.64H194l-16.71,47.51h1.72l4.83-13.76h16.88L205,111.55h-4.92v1.64h18.52v-1.64h-5ZM184.54,97.61l7.78-22.12,7.78,22.12H184.54Z" transform="translate(-29.85 -29.85)"/><path class="cls-1" d="M438.71,111.95L422,64.42H409.68v1.64h9.44l-16.71,47.51h1.72L409,99.81h16.88l4.26,12.14h-4.92v1.64h18.53v-1.64h-5ZM409.62,98l7.78-22.12L425.19,98H409.62Z" transform="translate(-29.85 -29.85)"/><path class="cls-1" d="M164.72,103.38v2.48a4.87,4.87,0,0,1-.92,2.95,3,3,0,0,1-2.52,1.29l-13.76,0a6.8,6.8,0,0,0-4.35,1.68,5,5,0,0,0-2.09,3.94H141a5,5,0,0,0-2.11-3.92A8,8,0,0,0,137,110.6V57.18h6.68v-1.6H117.76v1.6h7.58l0,52.92h-4.52a3,3,0,0,1-2.52-1.29,4.89,4.89,0,0,1-.92-2.95v-2.48H116v3a7.48,7.48,0,0,0,1.86,5.09,5.26,5.26,0,0,0,3.9,2.12h12.88a6,6,0,0,1,3.66,1.4q1.82,1.4,2,6.14h1.65q0.14-4.73,2-6.14a5.93,5.93,0,0,1,3.63-1.4h12.88a5.36,5.36,0,0,0,3.89-2.13,7.39,7.39,0,0,0,1.86-5.08v-3h-1.38Zm-30.17,6.72h-1.24V57.18h2.26v53A6.16,6.16,0,0,0,134.56,110.09Z" transform="translate(-29.85 -29.85)"/></svg>