<svg id="Layer_1" data-name="Layer 1" xmlns="http://www.w3.org/2000/svg" viewBox="0 0 1413.6 591.07"><title>lacunalogo</title><polygon points="1375.78 543.65 38.78 543.65 38.78 399.65 45.78 399.65 45.78 537.65 1369.78 537.65 1369.78 399.65 1375.78 399.65 1375.78 543.65"/><polygon points="1375.78 190.65 1369.78 190.65 1369.78 52.65 45.78 52.65 45.78 190.65 38.78 190.65 38.78 46.65 1375.78 46.65 1375.78 190.65"/><path d="M480.27,275.54a13,13,0,0,1-13.1-12.9q0-.1,0-0.2v-69.3a27.73,27.73,0,0,0-5-16.08,38.3,38.3,0,0,0-14-12V275.3h-4.76V271a72.14,72.14,0,0,1-25.48,4.29,70.88,70.88,0,0,1-21.32-3.1,62.89,62.89,0,0,1-17.39-8.34,40.54,40.54,0,0,1-11.79-12.39,29.88,29.88,0,0,1,0-30.84A41.35,41.35,0,0,1,379.17,208a61.15,61.15,0,0,1,17.39-8.45,71,71,0,0,1,21.32-3.1,73.19,73.19,0,0,1,13.34,1.19A71.92,71.92,0,0,1,443.36,201V162.65a61.73,61.73,0,0,0-22.86-4,63.62,63.62,0,0,0-19.17,2.74,49.21,49.21,0,0,0-15,7.5A36.24,36.24,0,0,0,376.45,180a26.89,26.89,0,0,0-3.57,13.46h-4.76A31.84,31.84,0,0,1,372,178a39.38,39.38,0,0,1,11-12.62,55.07,55.07,0,0,1,16.55-8.45,67.53,67.53,0,0,1,21-3.1,66.44,66.44,0,0,1,20.84,3.1,52.18,52.18,0,0,1,16.2,8.45A39.22,39.22,0,0,1,468.12,178a32.66,32.66,0,0,1,3.81,15.36v69.07a8.55,8.55,0,0,0,8.34,8.34v4.76h0ZM367.86,235.77a25.76,25.76,0,0,0,6.55,17,47.29,47.29,0,0,0,17.27,12.5v-58.8a45.17,45.17,0,0,0-17.27,12.27A25.77,25.77,0,0,0,367.86,235.77Zm50,34.53a82.61,82.61,0,0,0,13.58-1.07,44.27,44.27,0,0,0,11.91-3.69v-59.3a59.65,59.65,0,0,0-12-3.69,68.68,68.68,0,0,0-13.46-1.31,67.37,67.37,0,0,0-21.43,3.34V267a67.28,67.28,0,0,0,21.41,3.3h0Z"/><path d="M607.21,158.6a54.89,54.89,0,0,0-15,2,58.58,58.58,0,0,0-13.34,5.6v99.1a53.74,53.74,0,0,0,28.34,7.62,54.74,54.74,0,0,0,31-9.17,57.53,57.53,0,0,0,20.72-23.94h5.24a64.39,64.39,0,0,1-9.29,15.36,60.41,60.41,0,0,1-29.29,19.77,61.53,61.53,0,0,1-18.34,2.74A60.4,60.4,0,0,1,583,272.8a61.67,61.67,0,0,1-32.87-32.87,62.29,62.29,0,0,1,0-48.35A61.66,61.66,0,0,1,583,158.72a60.37,60.37,0,0,1,24.17-4.88,59.25,59.25,0,0,1,30.37,8,63.78,63.78,0,0,1,22,21.08v-26.7h4.76v35.73h-5.48a53.65,53.65,0,0,0-8.69-13.46,60.49,60.49,0,0,0-12-10.48,58.28,58.28,0,0,0-14.53-6.91A53.87,53.87,0,0,0,607.21,158.6ZM550,215.76a55.27,55.27,0,0,0,6.55,26.67,58.29,58.29,0,0,0,17.51,20V169.32A56.64,56.64,0,0,0,550,215.76Z"/><path d="M1243.34,275.54a13,13,0,0,1-13.1-12.9q0-.1,0-0.2v-69.3a27.73,27.73,0,0,0-5-16.08,38.3,38.3,0,0,0-14.05-12V275.3h-4.76V271a72.14,72.14,0,0,1-25.48,4.29,70.88,70.88,0,0,1-21.32-3.1,62.89,62.89,0,0,1-17.39-8.34,40.54,40.54,0,0,1-11.79-12.39,29.88,29.88,0,0,1,0-30.84A41.35,41.35,0,0,1,1142.24,208a61.15,61.15,0,0,1,17.39-8.45,71,71,0,0,1,21.32-3.1,73.19,73.19,0,0,1,13.34,1.19,71.92,71.92,0,0,1,12.15,3.33V162.65a61.73,61.73,0,0,0-22.86-4,63.62,63.62,0,0,0-19.17,2.74,49.21,49.21,0,0,0-15,7.5,36.24,36.24,0,0,0-9.88,11.08,26.89,26.89,0,0,0-3.57,13.46h-4.76a31.84,31.84,0,0,1,3.9-15.43,39.38,39.38,0,0,1,11-12.62,55.07,55.07,0,0,1,16.55-8.45,67.53,67.53,0,0,1,21-3.1,66.44,66.44,0,0,1,20.84,3.1,52.18,52.18,0,0,1,16.2,8.45A39.22,39.22,0,0,1,1231.2,178a32.66,32.66,0,0,1,3.81,15.36v69.07a8.55,8.55,0,0,0,8.34,8.34v4.76h0Zm-112.41-39.77a25.76,25.76,0,0,0,6.55,17,47.29,47.29,0,0,0,17.27,12.5v-58.8a45.17,45.17,0,0,0-17.27,12.27,25.77,25.77,0,0,0-6.55,17h0Zm50,34.53a82.61,82.61,0,0,0,13.58-1.07,44.27,44.27,0,0,0,11.91-3.69v-59.3a59.65,59.65,0,0,0-12-3.69,68.68,68.68,0,0,0-13.46-1.31,67.37,67.37,0,0,0-21.43,3.34V267a67.28,67.28,0,0,0,21.41,3.3h0Z"/><polygon points="293.78 227.65 293.78 269.65 221.78 269.65 221.78 113.65 241.78 113.65 241.78 107.65 216.99 107.65 193.78 243.28 193.78 107.65 168.78 107.65 168.78 113.65 188.46 113.65 188.37 269.65 168.78 269.65 168.78 274.65 192.97 274.65 217.78 139.47 217.78 274.65 297.78 274.65 297.78 227.65 293.78 227.65"/><path d="M863.78,160.65v-5h-20l-18,95.55V155.65h-20v5h14V264.11a103.86,103.86,0,0,1-12.62,4.29,45.23,45.23,0,0,1-13.26,2.14,61.21,61.21,0,0,1-21.12-3.34V160.65h13v-5h-18V265.06c-6-2.7-11.19-6.27-14.52-10.72s-5.48-9.37-5.48-14.77V155.65h-18v5h14v78.93a27.14,27.14,0,0,0,3.71,13.93,36,36,0,0,0,10.43,11.31,55.12,55.12,0,0,0,15.81,7.62,66.45,66.45,0,0,0,19.87,2.86,48.49,48.49,0,0,0,13.45-2c4.68-1.35,9.73-2.74,12.73-4.17v5.54h4.83l19.17-92.83v92.83h20v-5h-15v-109h15v0Z"/><path d="M1047.78,269.65v-77.7c0-4.92-1.9-9.57-4.68-13.93a39.48,39.48,0,0,0-11.57-11.31,62.88,62.88,0,0,0-16.8-7.62A66.32,66.32,0,0,0,995,156.22c-8.57,0-17.26,1.35-23.26,4V155.6h-6l-19,96.61V155.65h-18v5h14v109h-14v5H946.5l19.24-91.77v91.77h19v-5h-13V165.27a55.63,55.63,0,0,1,10.58-3.1A61.15,61.15,0,0,1,994.67,161a64.59,64.59,0,0,1,12.53,1.19c4,0.8,6.58,1.83,11.58,3.1V269.65h-14v5h18V167.18a40.61,40.61,0,0,1,14.29,10.72c3.49,4.29,5.71,9,5.71,14.05v82.7h18v-5h-13Z"/><path d="M481.1,475.66a56.3,56.3,0,0,0,16.43-2.38,57.08,57.08,0,0,0,14.65-6.79,56.19,56.19,0,0,0,12-10.48A61.58,61.58,0,0,0,533,442.55h5a64.39,64.39,0,0,1-9.29,15.36,60.41,60.41,0,0,1-29.29,19.77,61.53,61.53,0,0,1-18.34,2.74,60.4,60.4,0,0,1-24.17-4.88A61.67,61.67,0,0,1,424,442.67a62.29,62.29,0,0,1,0-48.35,61.81,61.81,0,0,1,100.87-19.41A64.8,64.8,0,0,1,543,420.4H452.76V468A53.74,53.74,0,0,0,481.1,475.66ZM423.94,418.5a55.27,55.27,0,0,0,6.55,26.67,58.29,58.29,0,0,0,17.51,20V372A56.64,56.64,0,0,0,423.94,418.5Zm57.16-57.16a54.89,54.89,0,0,0-15,2,58.58,58.58,0,0,0-13.34,5.6v46.68h57.16V369.2A56,56,0,0,0,481.1,361.34Zm57.16,54.3a55.31,55.31,0,0,0-7-24.53,59.88,59.88,0,0,0-16.55-18.82v43.35h23.55Z"/><path d="M712.84,359v35.73h-4.76a29.32,29.32,0,0,0-4-13,34.74,34.74,0,0,0-9.88-10.6,50.91,50.91,0,0,0-15-7.13,64.19,64.19,0,0,0-18.82-2.62q-15.72,0-26.91,6t-16.67,15.24L701.4,416a24.86,24.86,0,0,1,13.82,13,26.38,26.38,0,0,1,1.43,19,32,32,0,0,1-6.55,12.86,45.93,45.93,0,0,1-12,10.24,64.94,64.94,0,0,1-16.2,6.79,74.39,74.39,0,0,1-40.37-.59,61,61,0,0,1-17.39-8.46,41.87,41.87,0,0,1-11.79-12.5A29.56,29.56,0,0,1,608,440.89h4.76v0.24a25,25,0,0,0,3.93,13.46,37,37,0,0,0,10.72,11A57.09,57.09,0,0,0,643.25,473a67.08,67.08,0,0,0,19.53,2.74,62.81,62.81,0,0,0,28.7-6.43,41.69,41.69,0,0,0,18.93-18.58l-84.79-33.58a25.25,25.25,0,0,1-8.69-5.48,24,24,0,0,1-5.6-8.22,29.23,29.23,0,0,1-2.14-9.88,25.23,25.23,0,0,1,1.67-10.24,38.77,38.77,0,0,1,19.41-20,67.92,67.92,0,0,1,30.13-6.67q16.43,0,28.94,6.43T708,379.49V359h4.8Zm-0.72,87.41A22.26,22.26,0,0,0,710.45,431a20.86,20.86,0,0,0-11-10.36L614.9,386.58a22.25,22.25,0,0,0,1.67,15.36,20.81,20.81,0,0,0,11,10.36Z"/><path d="M931.23,478a26.32,26.32,0,0,1-20.72-42.39,24.87,24.87,0,0,1,14-9.29A44.44,44.44,0,0,1,910.27,413a29.8,29.8,0,0,1-1-32.27,41.34,41.34,0,0,1,11.79-12.62,61.06,61.06,0,0,1,17.39-8.45,73.48,73.48,0,0,1,43,.24V348.24a13,13,0,0,1,12.9-13.1h0.2v4.76a8.39,8.39,0,0,0-8.34,7.62v14q12.86,5,20.6,14a30.68,30.68,0,0,1,7.74,20.48,29.55,29.55,0,0,1-4.29,15.48A40.54,40.54,0,0,1,998.51,424a62.92,62.92,0,0,1-17.39,8.34,70.9,70.9,0,0,1-21.32,3.1,73.89,73.89,0,0,1-14.29-1.31,76.7,76.7,0,0,1-12.86-3.69,3.36,3.36,0,0,0-1.43-.24,20.55,20.55,0,0,0-14.41,5.6,21.49,21.49,0,0,0-7,13.69l77.64-.24h0.71a24.68,24.68,0,0,1,10.24,2.14,27.57,27.57,0,0,1,14,14,25.54,25.54,0,0,1,0,20.48,27.87,27.87,0,0,1-5.72,8.34,26,26,0,0,1-18.58,7.62H952.66v-4.76h35.49a21.46,21.46,0,0,0,21.41-19.06H931.23V478ZM909.8,395.83a25.76,25.76,0,0,0,6.55,17,47.31,47.31,0,0,0,17.27,12.5V366.58a45.13,45.13,0,0,0-17.27,12.27,25.76,25.76,0,0,0-6.56,17v0Zm0,58.35a21,21,0,0,0,7,13.58,20.78,20.78,0,0,0,14.41,5.48h78.36a21.46,21.46,0,0,0-21.41-19.06H909.8Zm50-92.88a67.42,67.42,0,0,0-21.43,3.33V427a67.28,67.28,0,0,0,21.43,3.34A71,71,0,0,0,981.47,427v-62.4a71.13,71.13,0,0,0-21.66-3.29v0Zm50,34.53a26,26,0,0,0-6.43-17,44.09,44.09,0,0,0-17.15-12.27V425.4a46.18,46.18,0,0,0,17.15-12.5,26,26,0,0,0,6.46-17Z"/><path d="M347.51,362.29a84.19,84.19,0,0,0-17.86-26.56,85.13,85.13,0,0,0-26.55-18.2,81.46,81.46,0,0,0-32.39-6.89H247.16L223.78,450.4V310.65h-24v5h19v157h-19v6h23.68l24.32-136.17V478.65H270.7a81.37,81.37,0,0,0,32.39-6.85A83.78,83.78,0,0,0,347.51,362.29ZM316.78,459c-6,4.61-14,7.82-21.61,10.28a80.23,80.23,0,0,1-24.47,3.38H252.78v-157H270.7a80.61,80.61,0,0,1,24.47,3.91c7.62,2.46,15.61,6.21,21.61,10.82V459h0Zm24.81-30.13a77.84,77.84,0,0,1-20.81,26.56V334.19a75.24,75.24,0,0,1,20.81,26.44,79.06,79.06,0,0,1,0,68.23h0Z"/><polygon points="825.78 472.65 825.78 358.65 820.66 358.65 802.78 452.16 802.78 358.65 782.78 358.65 782.78 362.65 796.78 362.65 796.78 472.65 782.78 472.65 782.78 478.65 802.03 478.65 820.78 383.11 820.78 478.65 840.78 478.65 840.78 472.65 825.78 472.65"/><path d="M811.33,335.14A14.23,14.23,0,1,0,801.21,331,13.78,13.78,0,0,0,811.33,335.14Zm-6.79-21.08a9.78,9.78,0,1,1-2.74,6.79,9.22,9.22,0,0,1,2.74-6.79h0Z"/><path d="M1199.78,472.65v-78c0-4.92-2-9.57-4.76-13.93a39.64,39.64,0,0,0-11.61-11.31,63,63,0,0,0-16.82-7.62A65.82,65.82,0,0,0,1147,359c-8.57,0-17.19,1.35-23.19,4v-4.36h-6.21l-18.79,95.14V358.65h-19v4h15v110h-15v6h18.6l19.4-94.16v94.16h19v-6h-13V368a54.69,54.69,0,0,1,10.49-3.1,60.74,60.74,0,0,1,12.27-1.19,65.26,65.26,0,0,1,12.59,1.19c4,0.8,6.64,1.83,11.64,3.1V472.65h-14v6h18V369.91a40.6,40.6,0,0,1,14.29,10.72c3.49,4.29,5.71,9,5.71,14v84h18v-6h-13Z"/><path d="M94.29,316.13a8.81,8.81,0,0,0-2.4-5.36A10,10,0,0,0,85.82,308V302.3a8.21,8.21,0,0,0,8.47-7.94q0-.26,0-0.53V206.34a14,14,0,0,1,13.89-14.11h0.22v5.64a8.21,8.21,0,0,0-8.47,7.94q0,0.26,0,.53v87.49a13.41,13.41,0,0,1-5.64,11.29,14.77,14.77,0,0,1,5.64,11v87.77a8.21,8.21,0,0,0,7.94,8.47h0.53V418a14,14,0,0,1-14.11-13.89q0-.11,0-0.22V316.13Z"/><path d="M1318.35,403.91A14,14,0,0,1,1304.44,418h-0.2v-5.64a8.21,8.21,0,0,0,8.47-7.94q0-.26,0-0.53V316.13a14.75,14.75,0,0,1,5.64-11,13.4,13.4,0,0,1-5.64-11.29v-87.5a8.21,8.21,0,0,0-7.94-8.47h-0.53v-5.64a14,14,0,0,1,14.11,13.89q0,0.11,0,.22v87.49a8.21,8.21,0,0,0,7.94,8.47h0.53v5.64a10,10,0,0,0-6.07,2.82,8.79,8.79,0,0,0-2.4,5.36v87.79Z"/></svg>